# xmcd
#
# Track frame offsets:
#	150
#	26217
#	48390
#	72262
#	94925
#	117790
#	141115
#	164725
#	187532
#	204472
#	224352
#	250500
#
# Disc length: 4440 seconds
#
# Revision: 0
# Processed by: cddbd v1.5.1PL0 Copyright (c) Steve Scherf et al.
# Submitted via: dBpowerAMP V4.0
#
DISCID=a911560c
DTITLE=Myco - my-collage
DYEAR=2004
DGENRE=JPop
TTITLE0=lily~el viajero blanco y puro~
TTITLE1=Da Capo
TTITLE2=HIBARI
TTITLE3=mata koishiyou
TTITLE4=akai ito
TTITLE5=MALDIVES
TTITLE6=Dear a Friend
TTITLE7=Confession
TTITLE8=kurisumasu wo kuchizuke wo
TTITLE9=Your Song
TTITLE10=milk tea
TTITLE11=DATA
EXTD=Myco - my-collage, and my name is Jennifer
EXTT0=
EXTT1=
EXTT2=
EXTT3=
EXTT4=
EXTT5=
EXTT6=
EXTT7=
EXTT8=
EXTT9=
EXTT10=
EXTT11=
PLAYORDER=
